<svg width="64" height="64" viewBox="0 0 64 64" fill="none" xmlns="http://www.w3.org/2000/svg">
<rect width="64" height="64" rx="4" fill="#F3F3F3"/>
<path d="M34.8155 12.598C34.8214 12.5333 34.8333 12.4741 34.8393 12.4094C33.989 12.7219 33.1862 13.1421 32.443 13.6215C31.4143 14.2896 30.6829 15.2108 30.0348 16.1805C29.9931 16.2397 29.9515 16.3044 29.8921 16.3475C29.8861 16.3528 29.8742 16.3582 29.8683 16.3636C29.8088 16.3959 29.7315 16.4067 29.672 16.3798C29.6126 16.3528 29.5769 16.2882 29.571 16.2236C29.5531 16.035 29.6602 15.8141 29.7375 15.6417C30.1656 14.6667 30.8613 13.8101 31.6402 13.0343C31.0278 12.4525 30.2429 12.0916 29.3747 12C29.3331 12.6088 29.018 13.1852 28.5482 13.6593C27.8406 14.3757 26.7644 14.672 25.7832 14.9522C23.8983 15.4909 22.4415 16.4929 21.3117 17.899C21.3296 17.9044 21.3415 17.9044 21.3593 17.9097C22.0134 18.0929 22.6318 18.3784 23.2086 18.7124C23.6842 18.9872 24.6297 19.4451 24.5702 20.0484C24.5524 20.237 24.4454 20.3609 24.2491 20.4309C23.6129 20.6572 22.7923 19.903 22.2869 19.6282C21.7101 19.3104 21.0798 19.041 20.4079 18.9549C19.3079 18.8148 18.1543 19.2027 17.7916 20.2155C17.4348 21.2121 17.7678 22.241 18.3981 23.0814C18.7846 23.5932 19.2781 24.0296 19.7717 24.4552C20.1225 24.7568 20.8836 25.344 20.622 25.8451C20.3425 26.3784 19.1889 25.5757 18.9333 25.3818C18.7311 25.2255 18.5349 25.0639 18.3505 24.8915C17.8511 26.7393 17.3694 28.5925 16.8699 30.4457C16.311 32.5036 15.5856 34.6046 15.5142 36.7433C15.4607 38.478 16.0018 40.0888 17.1613 41.4679C18.2019 42.7069 19.5873 43.6928 21.0441 44.5009C22.7864 45.4706 24.6713 46.2248 26.6336 46.7689C26.4254 45.018 26.7763 43.2187 27.5552 41.6079C28.3044 40.0511 29.4996 38.7043 31.004 37.6969C32.7819 36.5063 34.8987 36.0053 37.0869 35.9352C39.5486 35.8544 42.0639 36.2746 44.5077 35.8437C45.4948 35.6713 46.4343 35.3534 47.2608 34.8309C47.8852 34.4376 48.2895 33.9635 48.6582 33.4302C48.236 33.3656 47.8317 33.1986 47.4868 32.9292C47.1895 32.6922 46.9635 32.4013 46.7911 32.078C46.5294 32.5252 46.1965 32.94 45.7921 33.2955C44.6505 34.2975 43.0212 34.7608 41.4455 34.6315C39.8757 34.4969 38.2999 33.8773 37.3604 32.6922C37.2058 32.4982 37.081 32.2881 36.968 32.0726C35.2317 32.4336 33.5727 33.0585 32.0089 33.7965C31.6521 33.9635 31.3548 33.5864 31.5927 33.3332C32.8057 32.0834 34.6252 31.3939 36.415 30.9952C36.4804 30.979 36.5399 30.9683 36.6053 30.9575C36.5993 30.8928 36.5815 30.8336 36.5756 30.7689C36.5399 30.1763 36.6945 29.2713 37.3723 29.0019C37.6518 28.8888 37.9848 29.0181 37.9907 29.3198C37.9967 29.8154 37.7291 30.2518 37.7529 30.7528C38.2524 30.6827 38.7578 30.6343 39.2632 30.6127C39.8876 30.5858 40.5298 30.505 41.1422 30.6827C41.3563 30.7474 41.5703 30.8444 41.6952 31.006C41.7309 31.0491 41.7547 31.0976 41.7725 31.146C41.8201 31.2861 41.8022 31.4423 41.6893 31.5501C41.5882 31.6524 41.4276 31.6955 41.279 31.7225C40.5773 31.8518 39.8578 31.7279 39.1502 31.771C38.841 31.7871 38.5318 31.8248 38.2226 31.8625C38.3178 31.9757 38.4189 32.0834 38.5318 32.1858C39.3821 32.9346 40.5535 33.3817 41.7368 33.4248C42.9201 33.4679 44.0915 33.1231 44.9299 32.342C45.2926 32.0026 45.5899 31.5986 45.7743 31.1568C45.804 31.0868 45.8278 31.006 45.8516 30.9306C45.4472 30.7312 45.0726 30.4349 44.7456 30.2087C44.1391 29.7992 43.598 29.1689 43.925 28.4471C44.2283 27.7737 44.9597 27.445 45.6613 27.2242C46.3451 27.0087 47.0705 26.8578 47.796 26.9387C48.3192 26.9925 48.9912 27.1919 49.1398 27.7144C49.1874 27.8868 49.1695 28.0646 49.122 28.2424C49.1041 28.307 49.0863 28.3663 49.0625 28.4255C48.8366 29.072 48.4441 29.6646 48.0398 30.2302C47.9208 30.3918 47.796 30.5588 47.6473 30.7043C47.7008 30.9952 47.7841 31.2861 47.9327 31.5501C48.1646 31.9541 48.7295 32.4174 49.2706 32.2181C50.2934 31.8464 50.1685 30.1494 50.1863 29.3575C50.2042 28.4686 50.109 27.472 49.3539 26.8201C48.6701 26.2329 47.7246 25.9797 47.0646 25.3548C46.7376 25.0424 46.5354 24.6976 46.4046 24.3259C46.1786 24.4282 45.9229 24.4929 45.6435 24.4929C44.7456 24.4929 44.0142 23.8787 44.0142 23.1191C44.0142 22.3595 44.7456 21.7454 45.6435 21.7454C45.7386 21.7454 45.8337 21.7562 45.9229 21.767C45.804 21.309 45.6316 20.8619 45.4116 20.4309C45.2391 20.3447 45.0667 20.2909 44.8526 20.2478C44.585 20.1993 44.3056 20.2639 44.0677 20.3825C43.711 20.5602 43.4672 20.8996 43.0926 21.0505C43.0569 21.0612 43.0212 21.072 42.9855 21.0828C42.8844 21.1043 42.7774 21.0989 42.6823 21.0559C42.5515 20.9912 42.4742 20.8619 42.4444 20.7272C42.3969 20.4848 42.4979 20.237 42.6585 20.0377C43.0093 19.6067 43.5801 19.2835 44.1629 19.1865C44.2937 19.165 44.4245 19.1542 44.5553 19.1488C43.5623 17.9636 42.2304 17.1609 40.6606 16.5629C39.6913 16.1912 38.7281 15.7656 38.1453 14.936C37.8302 14.4889 37.6637 13.9879 37.6696 13.4869C36.2545 13.8963 35.0414 14.6936 34.1257 15.7872C33.9295 16.0242 33.5489 15.8303 33.6857 15.5555C34.0187 14.8983 34.4884 14.3165 35.0533 13.8209C34.8512 13.4653 34.7917 13.002 34.8155 12.598ZM17.9462 36.7703C17.7916 37.045 17.3159 36.9103 17.3159 36.614C17.3159 36.1723 17.3694 35.7251 17.4467 35.2888C17.524 34.8632 17.637 34.4592 17.7678 34.0443C17.857 33.7696 18.1603 33.6241 18.4635 33.6888C18.7727 33.7534 18.9154 34.0551 18.856 34.3191C18.7608 34.7393 18.6538 35.1487 18.5051 35.5528C18.3565 35.973 18.1662 36.3824 17.9462 36.7703ZM19.6171 38.4511C19.4506 39.1999 19.1771 39.9271 18.8143 40.6221C18.7668 40.7137 18.7133 40.8053 18.6181 40.8645C18.4814 40.9453 18.2792 40.9184 18.1781 40.7999C18.0889 40.6975 18.0889 40.5521 18.1008 40.4228C18.1424 39.6632 18.2792 38.9036 18.5111 38.1763C18.523 38.1278 18.5408 38.0847 18.5587 38.0416C18.5884 37.9716 18.6241 37.9016 18.6776 37.8423C18.8143 37.6915 19.0462 37.6376 19.2544 37.6807C19.6527 37.7669 19.6825 38.1494 19.6171 38.4511ZM22.2393 33.9474C22.1501 34.5669 22.0074 35.1757 21.8112 35.7682C21.7101 36.0645 21.5971 36.3608 21.4723 36.6517C21.395 36.8349 21.3177 37.1743 21.0858 37.2497C20.9431 37.2982 20.7825 37.2282 20.6993 37.1204C20.5506 36.9211 20.6398 36.5548 20.6576 36.3285C20.6814 36.0268 20.7112 35.7305 20.7587 35.4289C20.8539 34.8255 21.0025 34.2221 21.2225 33.6457C21.2701 33.5218 21.3355 33.3925 21.4366 33.3009C21.502 33.247 21.5734 33.2039 21.6685 33.1878C21.9182 33.1447 22.168 33.3117 22.2334 33.5272C22.275 33.6565 22.2572 33.8019 22.2393 33.9474ZM22.8815 22.2141C22.5723 22.3973 22.1442 22.268 21.9599 21.9932C21.9182 21.9286 21.8707 21.8639 21.8231 21.8047C21.8172 21.7993 21.8172 21.7993 21.8172 21.7939C21.7934 21.767 21.7696 21.74 21.7458 21.7131C21.6447 21.6107 21.5377 21.5138 21.4247 21.4222C21.3593 21.3737 21.2939 21.3252 21.2285 21.2767C21.2166 21.266 21.2047 21.2606 21.1928 21.2498C21.1869 21.2444 21.169 21.2336 21.1452 21.2175C21.0204 21.1367 20.9014 21.0559 20.7706 20.9804C20.509 20.8242 20.2236 20.7165 19.9382 20.5872C19.7003 20.4794 19.409 20.404 19.1354 20.3771C18.9333 20.3555 18.8976 20.1293 19.0879 20.0646C19.4387 19.9407 19.7895 19.8761 20.1641 19.8383C20.5268 19.806 20.9133 19.8868 21.2582 19.9892C22.0491 20.2262 22.6853 20.7542 23.1253 21.3845C23.3275 21.6646 23.1848 22.0417 22.8815 22.2141ZM41.0233 27.9838C41.7785 28.2531 41.4811 29.3737 40.6844 29.1312C39.4178 28.7541 38.1334 28.6626 36.8134 28.6733C35.3982 28.6841 34.0068 28.7918 32.6332 29.1043C32.324 29.1743 32.1397 28.7811 32.4192 28.6248C33.7154 27.9137 35.2614 27.5582 36.7539 27.4666C38.1513 27.3912 39.7092 27.5097 41.0233 27.9838ZM37.2712 24.5845C37.2712 25.3871 36.5042 26.0336 35.5528 26.0336C34.6014 26.0336 33.8344 25.3818 33.8344 24.5845C33.8344 23.7818 34.6014 23.1353 35.5528 23.1353C36.4982 23.1299 37.2712 23.7818 37.2712 24.5845ZM35.3744 19.806C35.862 19.9084 36.7004 20.1239 36.6945 20.6895C36.6885 21.002 36.4031 21.266 36.0642 21.2875C35.8263 21.3037 35.6242 21.1851 35.416 21.0936C34.9641 20.8996 34.429 20.8781 33.9414 21.002C33.4538 21.1205 33.0197 21.3683 32.6511 21.6808C32.4073 21.8909 32.1932 22.1225 32.0029 22.3703C31.9554 22.435 31.8424 22.6505 31.7175 22.7636C31.6343 22.839 31.5451 22.8713 31.4737 22.769C31.4381 22.7205 31.4262 22.6558 31.4143 22.5966C31.2597 21.5892 31.777 20.6357 32.7462 20.1239C32.9722 20.0054 33.216 19.9084 33.4716 19.8383C34.096 19.6821 34.756 19.6713 35.3744 19.806Z" fill="#0C0A09"/>
<path d="M42.3773 45.2926C44.6487 43.0246 43.8401 39.7169 42.4368 37.2549C38.8869 37.3358 35.2419 36.6085 32.0845 38.5155C30.592 39.4152 29.4325 40.7458 28.7309 42.2381C27.9995 43.8004 27.8449 45.4435 27.9995 47.1189C29.3255 47.4098 30.6693 47.6091 32.031 47.6953C35.45 47.9054 39.8918 47.7707 42.3773 45.2926Z" fill="#0C0A09"/>
<path d="M42.3996 50.4265C43.577 49.6831 44.3024 48.6164 44.7602 47.3989C45.2062 46.2137 45.5511 44.9585 45.4381 43.6979C45.3965 43.2238 45.2716 42.7713 45.0813 42.3403C44.9565 43.9134 44.2905 45.411 42.8277 46.6016C42.3461 46.9895 41.8169 47.3127 41.2579 47.5928C41.5255 48.2285 41.7693 48.875 42.0131 49.5214C42.1201 49.78 42.3164 50.1248 42.3996 50.4265Z" fill="#0C0A09"/>
<path d="M14.2438 42.998C15.1119 44.9105 16.9731 46.3219 18.8223 47.4371C20.6359 48.5253 22.6338 49.3549 24.6793 50.0067C28.687 51.2835 32.9802 51.9892 37.2376 52C37.4101 50.8956 37.5171 49.7805 37.6598 48.6761C37.6241 48.6815 37.5885 48.6923 37.5468 48.6977C35.4716 49.0101 33.3369 49.0478 31.2439 48.8539C27.1173 48.4768 23.0084 47.227 19.5716 45.099C17.9958 44.1239 16.545 42.9388 15.5282 41.4573C14.9633 40.633 14.5887 39.7388 14.3806 38.8122C14.1546 39.2108 13.9643 39.6256 13.8811 40.0997C13.7086 41.0748 13.8276 42.0876 14.2438 42.998Z" fill="#0C0A09"/>
</svg>
