<svg width="64" height="64" viewBox="0 0 64 64" fill="none" xmlns="http://www.w3.org/2000/svg">
<rect width="64" height="64" rx="4" fill="#F3F3F3"/>
<path d="M12.1113 25.1051L10.952 25.2273C9.90029 25.3372 9.43418 25.6303 9.43418 26.2165C9.43418 26.7539 9.85249 27.1325 10.5098 27.1325C11.3225 27.1447 12.1113 26.6684 12.1113 25.496V25.1051ZM8.20318 23.7373C8.28684 22.4916 9.27881 21.6855 10.8923 21.6855C12.673 21.6855 13.4379 22.3328 13.4379 24.0915C13.4379 24.4945 13.414 25.5448 13.414 25.899C13.414 26.705 13.4499 27.3523 13.5336 28.1095H12.2308L12.195 27.3523C11.8006 27.9385 11.203 28.2561 10.211 28.2561C8.80075 28.2561 8 27.279 8 26.2165C8 25.6059 8.27489 25.1418 8.68124 24.8609C9.23101 24.4823 9.98395 24.3235 10.9162 24.2136L12.0635 24.0915V23.8716C12.0635 23.0167 11.5616 22.7603 10.8206 22.7603C10.0318 22.7603 9.5537 23.1267 9.49394 23.7984L8.20318 23.7373ZM18.6037 37.0864C18.4602 36.4758 17.9105 36.0972 17.1456 36.0972C16.5241 36.0972 15.9982 36.3292 15.9982 36.7445C15.9982 37.1353 16.3687 37.3551 16.9544 37.4895L17.6834 37.6482C18.9383 37.9291 20.002 38.2833 20.002 39.5168C20.002 40.848 18.771 41.5685 17.3248 41.5685C15.7114 41.5685 14.6716 40.6404 14.5521 39.4924L15.9026 39.2847C16.0102 39.9565 16.4882 40.4816 17.3846 40.4816C18.1495 40.4816 18.6515 40.2007 18.6515 39.6878C18.6515 39.1748 18.1137 39.0039 17.4802 38.8573L16.6675 38.6741C15.5919 38.4421 14.7194 37.9902 14.7194 36.8177C14.7194 35.6942 15.8787 34.998 17.289 34.998C18.5798 34.998 19.7152 35.6453 19.9542 36.8788L18.6037 37.0864ZM23.7309 40.4328C24.675 40.4328 25.3085 39.7122 25.3085 38.2955C25.3085 36.8788 24.675 36.1583 23.7309 36.1583C22.8106 36.1583 22.1533 36.8788 22.1533 38.2955C22.1533 39.7122 22.8106 40.4328 23.7309 40.4328ZM23.7309 35.0347C25.3085 35.0347 26.7307 36.0606 26.7307 38.3077C26.7307 40.5549 25.3085 41.5808 23.7309 41.5808C22.1533 41.5808 20.731 40.5549 20.731 38.3077C20.731 36.0483 22.1533 35.0347 23.7309 35.0347ZM27.8781 32.9341H29.2644V41.422H27.8781V32.9341ZM34.6068 40.6404C34.2482 41.2022 33.6267 41.5685 32.7543 41.5685C32.0013 41.5685 31.4755 41.3121 31.1169 40.848C30.8181 40.4572 30.6628 39.871 30.6628 39.0405V35.1568H32.0491V38.7352C32.0491 39.2847 32.085 39.6633 32.2523 39.932C32.4435 40.2373 32.7423 40.3961 33.2204 40.3961C34.2482 40.3961 34.6068 39.5412 34.6068 38.4054V35.1568H35.9931V41.422H34.6068V40.6404ZM37.8576 33.3493H39.244V35.169H40.4989V36.256H39.244V39.5046C39.244 40.1519 39.3993 40.3106 39.985 40.3106H40.4869V41.4342H39.471C38.1325 41.4342 37.8576 41.0678 37.8576 39.761V36.2437H36.9373V35.1568H37.8576V33.3493ZM45.2556 37.0864C45.1122 36.4758 44.5624 36.0972 43.7975 36.0972C43.176 36.0972 42.6501 36.3292 42.6501 36.7445C42.6501 37.1353 43.0206 37.3551 43.6063 37.4895L44.3353 37.6482C45.5902 37.9291 46.6539 38.2833 46.6539 39.5168C46.6539 40.848 45.4229 41.5685 43.9768 41.5685C42.3633 41.5685 41.3235 40.6404 41.204 39.4924L42.5545 39.2847C42.6621 39.9565 43.1402 40.4816 44.0365 40.4816C44.8014 40.4816 45.3034 40.2007 45.3034 39.6878C45.3034 39.1748 44.7656 39.0039 44.1321 38.8573L43.3194 38.6741C42.2438 38.4421 41.3713 37.9902 41.3713 36.8177C41.3713 35.6942 42.5306 34.998 43.9409 34.998C45.2317 34.998 46.3671 35.6453 46.6061 36.8788L45.2556 37.0864ZM51.5062 33.8256L48.2315 42.3135H46.9049L50.1796 33.8256H51.5062ZM8.65999 40.9823H13.6199V42.2647H8.65999V40.9823ZM54.4463 33.8256V35.1446L55.6654 34.6683L56 35.5476L54.757 35.9873L55.498 37.0498L54.7809 37.6116L53.9802 36.5124L53.2511 37.6116L52.4623 37.062L53.2153 35.9995L51.9843 35.5476L52.307 34.6683L53.5021 35.1446V33.8256H54.4463ZM28.7718 26.644H30.3494V28.2561H28.7718V26.644ZM28.7718 21.9909H30.3494V23.603H28.7718V21.9909ZM16.1748 24.9952C16.1748 26.3753 16.8083 27.1203 17.7405 27.1203C18.7086 27.1203 19.2225 26.2776 19.2225 24.983C19.2225 23.6885 18.7086 22.8458 17.7405 22.8458C16.8322 22.858 16.1748 23.5908 16.1748 24.9952ZM16.2346 30.3078H14.8482V21.8443H16.1868L16.1987 22.6137C16.5931 22.0275 17.2027 21.7222 18.0273 21.7222C19.5571 21.7222 20.6567 22.9435 20.6567 25.0074C20.6567 27.0103 19.4974 28.2683 17.9317 28.2683C17.131 28.2683 16.5812 27.9263 16.2466 27.4744V30.3078H16.2346ZM23.1187 24.9952C23.1187 26.3753 23.7521 27.1203 24.6843 27.1203C25.6524 27.1203 26.1663 26.2776 26.1663 24.983C26.1663 23.6885 25.6524 22.8458 24.6843 22.8458C23.7641 22.858 23.1187 23.5908 23.1187 24.9952ZM23.1784 30.3078H21.7921V21.8443H23.1306L23.1426 22.6137C23.537 22.0275 24.1465 21.7222 24.9712 21.7222C26.501 21.7222 27.6005 22.9435 27.6005 25.0074C27.6005 27.0103 26.4412 28.2683 24.8756 28.2683C24.0748 28.2683 23.525 27.9263 23.1904 27.4744V30.3078H23.1784Z" fill="#0C0A09"/>
</svg>
