<svg width="64" height="64" viewBox="0 0 64 64" fill="none" xmlns="http://www.w3.org/2000/svg">
<rect width="64" height="64" rx="4" fill="#F3F3F3"/>
<path d="M24.6378 33.2599C28.7451 28.1147 34.4352 24.4574 40.8324 22.8511C43.516 22.1923 46.6823 22.0078 48.7248 23.8656C49.4935 24.562 50.0208 25.4835 50.231 26.4976C50.4411 27.5116 50.3231 28.5658 49.8941 29.5088C49.4651 30.4518 48.7471 31.235 47.8434 31.7456C46.9396 32.2563 45.8967 32.4681 44.8645 32.3508C42.4386 32.0807 40.4225 30.045 37.9834 29.9989C35.9542 29.9989 34.1761 31.3165 32.6954 32.7C31.2147 34.0834 29.8002 35.6645 27.8833 36.3167" fill="#0C0A09"/>
<path d="M25.8568 34.7727C28.1774 31.8132 31.04 29.3345 34.2878 27.4726C37.296 25.7561 40.997 24.1665 44.5132 24.2467C45.9711 24.2867 47.4884 24.781 48.1943 26.1635C48.5036 26.7464 48.6283 27.4115 48.5516 28.0686C48.4749 28.7257 48.2005 29.3431 47.7655 29.837C45.1927 32.6288 41.7095 29.0355 38.9189 28.608C36.3857 28.2206 34.1822 29.4095 32.3219 31.0258C30.7716 32.3616 29.4456 34.2518 27.4797 34.9731C27.05 35.1052 26.6868 35.399 26.4646 35.7941C26.2425 36.1892 26.1784 36.6555 26.2856 37.097C26.4089 37.5367 26.6979 37.9098 27.0903 38.1359C27.4826 38.3621 27.9471 38.4231 28.3835 38.3059C30.6462 37.4777 32.2361 35.828 33.9448 34.1916C35.3169 32.8558 36.9662 31.52 38.9585 32.1479C40.9508 32.7757 42.6792 34.1516 44.8628 34.3453C45.8841 34.4207 46.9088 34.2589 47.8589 33.8723C48.809 33.4857 49.6593 32.8845 50.345 32.1145C51.0717 31.2783 51.5804 30.2713 51.8246 29.1853C52.0689 28.0993 52.041 26.9687 51.7435 25.8963C51.4405 24.819 50.8808 23.8335 50.1136 23.0265C49.3463 22.2194 48.3951 21.6155 47.3433 21.2678C43.3389 19.8452 38.5297 21.6218 34.8749 23.2715C30.4265 25.3382 26.5162 28.428 23.4555 32.2948C23.1494 32.6264 22.9791 33.0633 22.9791 33.5171C22.9791 33.9709 23.1494 34.4078 23.4555 34.7393C23.7775 35.0599 24.2111 35.2396 24.6627 35.2396C25.1144 35.2396 25.548 35.0599 25.87 34.7393L25.8568 34.7727Z" fill="#0C0A09"/>
<path d="M39.9735 38.2215C35.7986 43.525 30.0128 47.2949 23.5074 48.9504C20.781 49.6286 17.5643 49.8185 15.4892 47.8992C14.7111 47.1816 14.178 46.2336 13.9662 45.1912C13.7544 44.1487 13.8748 43.0653 14.3103 42.0962C14.7457 41.1271 15.4737 40.3222 16.39 39.7967C17.3063 39.2712 18.3639 39.0521 19.411 39.171C21.8756 39.449 23.9237 41.5378 26.4084 41.5853C28.4633 41.626 30.2698 40.2289 31.7807 38.8115C33.2917 37.3941 34.7154 35.7529 36.6695 35.0883" fill="#0C0A09"/>
<path d="M38.4002 37.0407C36.1148 39.9995 33.2954 42.4782 30.0965 44.3409C27.1249 46.0574 23.477 47.647 20.0112 47.5602C18.5741 47.5602 17.0786 47.0325 16.3828 45.65C16.0769 45.0669 15.954 44.401 16.0308 43.7434C16.1077 43.0858 16.3805 42.4687 16.8119 41.9765C19.3414 39.1846 22.7747 42.7713 25.5318 43.1988C28.0222 43.5862 30.1941 42.404 32.0343 40.7876C33.5624 39.4518 34.8694 37.5616 36.8071 36.8403C37.2311 36.7067 37.5892 36.4116 37.8081 36.0154C38.027 35.6192 38.0899 35.152 37.9841 34.7097C37.8612 34.2712 37.5758 33.8997 37.1892 33.6749C36.8025 33.4501 36.3455 33.39 35.9163 33.5075C33.6924 34.3357 32.1188 35.9787 30.4412 37.6151C29.0821 38.9509 27.4565 40.2867 25.4928 39.6656C23.529 39.0444 21.8254 37.6618 19.6405 37.4681C18.6348 37.3922 17.6256 37.5538 16.6901 37.9405C15.7546 38.3272 14.9177 38.9287 14.2435 39.6989C13.5271 40.5338 13.0251 41.5393 12.7833 42.6241C12.5414 43.7089 12.5672 44.8385 12.8584 45.9105C13.1561 46.989 13.7074 47.9759 14.4637 48.7842C15.22 49.5924 16.1582 50.1974 17.1956 50.5457C21.1491 51.9684 25.8829 50.1917 29.4853 48.5019C33.8736 46.4414 37.7292 43.3505 40.7411 39.4785C41.0453 39.1496 41.2149 38.7133 41.2149 38.2596C41.2149 37.8059 41.0453 37.3696 40.7411 37.0407C40.4245 36.7184 39.9968 36.5377 39.5511 36.5377C39.1055 36.5377 38.6778 36.7184 38.3612 37.0407H38.4002Z" fill="#0C0A09"/>
<path d="M19.8405 21.5475C17.5965 19.9822 14.4938 20.5115 12.9102 22.7296C11.3267 24.9478 11.8621 28.0149 14.106 29.5803L44.1595 50.5448C46.4034 52.1101 49.5063 51.5809 51.0898 49.3627C52.6733 47.1445 52.1379 44.0774 49.8939 42.5121L19.8405 21.5475Z" fill="#0C0A09"/>
<path d="M28.7841 22.3877C31.5307 22.3877 33.7573 20.1867 33.7573 17.4717C33.7573 14.7566 31.5307 12.5557 28.7841 12.5557C26.0375 12.5557 23.811 14.7566 23.811 17.4717C23.811 20.1867 26.0375 22.3877 28.7841 22.3877Z" fill="#0C0A09"/>
<path d="M28.8152 22.3876C27.8303 22.3937 26.8658 22.1105 26.0439 21.5741C25.2219 21.0376 24.5797 20.272 24.1985 19.3742C23.8173 18.4765 23.7144 17.4871 23.9028 16.5315C24.0911 15.5759 24.5623 14.697 25.2566 14.0064C25.9508 13.3158 26.8369 12.8446 27.8024 12.6524C28.768 12.4602 29.7695 12.5558 30.68 12.9269C31.5906 13.2981 32.3691 13.9282 32.917 14.7372C33.4648 15.5463 33.7573 16.4981 33.7573 17.4717C33.7573 18.7702 33.2376 20.0159 32.3117 20.9369C31.3858 21.858 30.1288 22.3795 28.8152 22.3876ZM28.8152 12.8137C27.8771 12.8137 26.9601 13.0887 26.1801 13.6038C25.4001 14.119 24.7921 14.8513 24.4331 15.7081C24.0741 16.5648 23.9802 17.5075 24.1632 18.417C24.3462 19.3265 24.798 20.162 25.4613 20.8177C26.1246 21.4734 26.9698 21.92 27.8899 22.1009C28.81 22.2818 29.7636 22.1889 30.6303 21.8341C31.497 21.4792 32.2378 20.8782 32.759 20.1072C33.2802 19.3362 33.5584 18.4296 33.5584 17.5023C33.5567 16.2593 33.0565 15.0677 32.1673 14.1887C31.2782 13.3098 30.0727 12.8153 28.8152 12.8137Z" fill="#0C0A09"/>
</svg>
