<svg width="512" height="512" viewBox="0 0 512 512" fill="none" xmlns="http://www.w3.org/2000/svg">
<rect width="512" height="512" fill="#0A1E25"/>
<path d="M234.629 298.918H227.99C223.287 310.6 216.052 319.179 206.284 324.655C196.516 330.13 183.674 332.868 167.756 332.868L136.282 332.868L136.282 293.442L170.469 293.442C189.643 293.442 205.199 287.966 217.137 277.014C228.713 266.427 234.502 249.817 234.502 227.183V218.01L149.001 217.292V179.508H234.502L234.502 64L277.371 64V97.9523H284.01C288.713 86.2703 295.948 77.6913 305.716 72.2154C315.483 66.7395 328.326 64.0015 344.244 64.0015L375.718 64.0015V103.428L341.531 103.428C322.357 103.428 306.801 108.904 294.863 119.856C283.286 130.443 277.498 147.053 277.498 169.687V179.508H356.835V217.292L277.503 218.011V448H234.634L234.629 332.87V298.918Z" fill="white"/>
</svg>
